<?xml version="1.0" encoding="UTF-8"?>
<svg width="948px" height="445px" viewBox="0 0 948 445" version="1.1" xmlns="http://www.w3.org/2000/svg" xmlns:xlink="http://www.w3.org/1999/xlink">
    <!-- Generator: Sketch 43.2 (39069) - http://www.bohemiancoding.com/sketch -->
    <title>Page 1</title>
    <desc>Created with Sketch.</desc>
    <defs></defs>
    <g id="Page-1" stroke="none" stroke-width="1" fill="none" fill-rule="evenodd">
        <g id="Chapitre-Copy-3" transform="translate(-506.000000, -297.000000)" stroke="#FFFFFF" stroke-width="3">
            <g id="Page-1" transform="translate(508.000000, 299.000000)">
                <path d="M144.527043,410.322664 C231.755377,424.224769 326.062907,451.208467 414.005272,437.790955 C439.398389,433.91582 462.708917,423.844649 487.890559,419.239813 C514.013789,414.463802 540.57364,411.872075 566.937292,408.835936 C617.29334,403.038504 666.132072,381.460867 716.240461,371.312547 C752.83614,363.901413 794.857006,362.818915 829.467391,348.359085 C856.992147,336.86146 887.498464,319.152529 911.806866,301.814878 C937.840842,283.249271 943.697019,254.857602 943.922968,224.064667 C944.293653,173.389769 907.230798,160.709191 868.091786,142.673984 C849.572822,134.138562 834.034614,123.888984 817.636835,112.398591 C804.759357,103.375362 793.314764,102.506631 777.366471,99.9165109 C729.97751,92.2249073 695.387227,67.1410055 652.378137,48.2700164 C598.957708,24.8287473 545.424706,14.1677073 488.282955,4.93071091 C404.33289,-8.63949273 310.87287,8.14043455 228.593701,26.9342745 C154.449496,43.8701073 91.0020825,112.531995 46.4965833,171.545424 C18.9428797,208.081144 -15.7945513,252.290787 7.84645724,298.21298 C27.1188525,335.656809 64.9488082,360.495602 98.4447264,383.922405 C111.183098,392.832322 134.362559,409.298027 144.527043,410.322664" id="Fill-1"></path>
            </g>
        </g>
    </g>
</svg>