<?xml version="1.0" encoding="UTF-8"?>
<svg width="1174px" height="550px" viewBox="0 0 1174 550" version="1.1" xmlns="http://www.w3.org/2000/svg" xmlns:xlink="http://www.w3.org/1999/xlink">
    <!-- Generator: Sketch 43.2 (39069) - http://www.bohemiancoding.com/sketch -->
    <title>Page 1</title>
    <desc>Created with Sketch.</desc>
    <defs></defs>
    <g id="Page-1" stroke="none" stroke-width="1" fill="none" fill-rule="evenodd">
        <g id="Chapitre-Copy-3" transform="translate(-393.000000, -245.000000)" fill="#FFFFFF">
            <g id="Page-1" transform="translate(393.000000, 245.000000)">
                <path d="M179.7402,510.5825 C288.2212,527.8815 405.5062,561.4585 514.8752,544.7625 C546.4552,539.9405 575.4452,527.4085 606.7622,521.6785 C639.2502,515.7355 672.2812,512.5105 705.0682,508.7325 C767.6932,501.5185 828.4312,474.6685 890.7482,462.0405 C936.2602,452.8185 988.5192,451.4715 1031.5622,433.4785 C1065.7932,419.1715 1103.7322,397.1355 1133.9632,375.5615 C1166.3402,352.4595 1173.6232,317.1305 1173.9042,278.8135 C1174.3652,215.7565 1128.2722,199.9775 1079.5972,177.5355 C1056.5662,166.9145 1037.2422,154.1605 1016.8492,139.8625 C1000.8342,128.6345 986.6012,127.5535 966.7672,124.3305 C907.8322,114.7595 864.8142,83.5465 811.3262,60.0645 C744.8902,30.8955 678.3142,17.6295 607.2502,6.1355 C502.8462,-10.7505 386.6152,10.1295 284.2892,33.5155 C192.0802,54.5895 113.1742,140.0285 57.8252,213.4615 C23.5582,258.9245 -19.6428,313.9365 9.7582,371.0795 C33.7262,417.6725 80.7732,448.5805 122.4302,477.7315 C138.2722,488.8185 167.0992,509.3075 179.7402,510.5825" id="Fill-1"></path>
            </g>
        </g>
    </g>
</svg>