<?xml version="1.0" encoding="utf-8"?>
<!-- Generator: Adobe Illustrator 20.1.0, SVG Export Plug-In . SVG Version: 6.00 Build 0)  -->
<svg version="1.1" id="Calque_1" xmlns="http://www.w3.org/2000/svg" xmlns:xlink="http://www.w3.org/1999/xlink" x="0px" y="0px"
	 viewBox="0 0 31.4 31.4" style="enable-background:new 0 0 31.4 31.4;" xml:space="preserve">
<style type="text/css">
	.st0{fill:#FFFFFF;}
</style>
<g>
	<path class="st0" d="M5,0C2.2,0,0,2.2,0,5v21.4c0,2.8,2.2,5,5,5h21.4c2.8,0,5-2.2,5-5V5c0-2.8-2.2-5-5-5H5z M15.7,23.7
		c-0.5,0-1-0.4-1-1c0-0.5,0.4-1,1-1c0.5,0,1,0.4,1,1C16.7,23.3,16.3,23.7,15.7,23.7z M17.1,16.5c-1,0.4-0.8,2.5-0.8,2.5
		c0,0.2,0,0.3-0.1,0.4c-0.1,0.1-0.1,0.1-0.1,0.1c-0.2,0.1-0.3,0.1-0.3,0.1c0,0-0.3-0.1-0.6-0.2c0,0,0,0,0-0.3c0-0.1-0.3-2.9,1.4-3.7
		c1.4-0.6,2.4-2.1,2.4-3.3c0-1.6-0.6-3.4-3.4-3.4c-2,0-3.1,1.1-3.1,3.1c0,0.3-0.3,0.6-0.6,0.6c-0.3,0-0.6-0.3-0.6-0.6
		c0-2.6,1.6-4.2,4.2-4.2c2.9,0,4.6,1.7,4.6,4.6C20.2,13.9,18.9,15.7,17.1,16.5z"/>
</g>
</svg>
